<svg xmlns="http://www.w3.org/2000/svg" viewBox="0 0 1440 320" preserveAspectRatio="none" style="width: 100%; height: auto;">
  <path fill="#F05537" fill-opacity="1" d="M0,288L14.1,282.7C28.2,277,56,267,85,234.7C112.9,203,141,149,169,122.7C197.6,96,226,96,254,128C282.4,160,311,224,339,213.3C367.1,203,395,117,424,74.7C451.8,32,480,32,508,64C536.5,96,565,160,593,192C621.2,224,649,224,678,218.7C705.9,213,734,203,762,218.7C790.6,235,819,277,847,261.3C875.3,245,904,171,932,160C960,149,988,203,1016,224C1044.7,245,1073,235,1101,240C1129.4,245,1158,267,1186,240C1214.1,213,1242,139,1271,112C1298.8,85,1327,107,1355,133.3C1383.5,160,1412,192,1426,208L1440,224L1440,320L1425.9,320C1411.8,320,1384,320,1355,320C1327.1,320,1299,320,1271,320C1242.4,320,1214,320,1186,320C1157.6,320,1129,320,1101,320C1072.9,320,1045,320,1016,320C988.2,320,960,320,932,320C903.5,320,875,320,847,320C818.8,320,791,320,762,320C734.1,320,706,320,678,320C649.4,320,621,320,593,320C564.7,320,536,320,508,320C480,320,452,320,424,320C395.3,320,367,320,339,320C310.6,320,282,320,254,320C225.9,320,198,320,169,320C141.2,320,113,320,85,320C56.5,320,28,320,14,320L0,320Z"></path>
</svg>
