<?xml version="1.0" standalone="no"?><svg xmlns="http://www.w3.org/2000/svg" viewBox="0 0 1440 320"><path fill="#F05537" fill-opacity="1" d="M0,0L30,32C60,64,120,128,180,176C240,224,300,256,360,234.7C420,213,480,139,540,101.3C600,64,660,64,720,90.7C780,117,840,171,900,165.3C960,160,1020,96,1080,64C1140,32,1200,32,1260,74.7C1320,117,1380,203,1410,245.3L1440,288L1440,320L1410,320C1380,320,1320,320,1260,320C1200,320,1140,320,1080,320C1020,320,960,320,900,320C840,320,780,320,720,320C660,320,600,320,540,320C480,320,420,320,360,320C300,320,240,320,180,320C120,320,60,320,30,320L0,320Z"></path></svg>