<?xml version="1.0" standalone="no"?><svg xmlns="http://www.w3.org/2000/svg" viewBox="0 0 1440 320"><path fill="#F05537" fill-opacity="1" d="M0,224L30,213.3C60,203,120,181,180,186.7C240,192,300,224,360,240C420,256,480,256,540,234.7C600,213,660,171,720,149.3C780,128,840,128,900,144C960,160,1020,192,1080,170.7C1140,149,1200,75,1260,64C1320,53,1380,107,1410,133.3L1440,160L1440,320L1410,320C1380,320,1320,320,1260,320C1200,320,1140,320,1080,320C1020,320,960,320,900,320C840,320,780,320,720,320C660,320,600,320,540,320C480,320,420,320,360,320C300,320,240,320,180,320C120,320,60,320,30,320L0,320Z"></path></svg>